<svg xmlns="http://www.w3.org/2000/svg" aria-hidden="true" style="position:absolute;width:0;height:0;overflow:hidden">
    <defs>
        <symbol id="basketball" viewBox="0 0 32 32">
            <path
                d="M30.629 16.518a14.62 14.62 0 0 1-1.152 5.685 14.318 14.318 0 0 1-1.349 2.481 14.77 14.77 0 0 1-1.784 2.162 15.027 15.027 0 0 1-2.164 1.783 14.8 14.8 0 0 1-2.485 1.346 14.689 14.689 0 0 1-11.39 0 14.81 14.81 0 0 1-2.486-1.346 14.911 14.911 0 0 1-2.163-1.783 14.593 14.593 0 0 1-3.989-7.388 14.764 14.764 0 0 1 0-5.881 14.557 14.557 0 0 1 3.989-7.389 14.72 14.72 0 0 1 4.649-3.131 14.484 14.484 0 0 1 2.749-.85 14.729 14.729 0 0 1 8.641.85 14.64 14.64 0 0 1 2.485 1.35 14.96 14.96 0 0 1 2.164 1.781 14.706 14.706 0 0 1 3.133 4.644 14.608 14.608 0 0 1 1.152 5.686zM10.669 5.234a12.494 12.494 0 0 0-6.895 8.712c.329.003 5.535.068 11.533-1.523a74.992 74.992 0 0 0-4.639-7.189zm5.674 9.11C9.911 16.267 3.738 16.129 3.517 16.12c-.004.134-.01.264-.01.398 0 3.205 1.211 6.126 3.201 8.336-.004-.006 3.415-6.063 10.156-8.24.163-.054.329-.103.493-.15a42.674 42.674 0 0 0-1.014-2.12zm7.907-7.189A12.438 12.438 0 0 0 16 4.044c-1.015 0-2 .123-2.944.349.187.251 2.534 3.36 4.67 7.277 4.714-1.765 6.493-4.47 6.524-4.515zm-6.042 11.376c-.028.009-.056.017-.083.027-7.371 2.566-9.778 7.737-9.804 7.793a12.478 12.478 0 0 0 7.678 2.641c1.73 0 3.378-.352 4.877-.989-.185-1.09-.911-4.91-2.669-9.473zm4.772 8.333a12.479 12.479 0 0 0 5.353-8.368c-.257-.083-3.752-1.188-7.785-.542 1.639 4.497 2.304 8.159 2.432 8.911zm-4.293-13.335a38.827 38.827 0 0 1 1.1 2.455c4.292-.539 8.52.368 8.7.405a12.403 12.403 0 0 0-2.841-7.796c-.024.033-2.027 2.924-6.96 4.936z" />
        </symbol>
        <symbol id="skype" viewBox="0 0 35 32">
            <path
                d="m16.409 8.695.073 1.208-1.221-.148c-4.444-.567-8.327-2.49-11.623-5.719L2.026 2.434l-.415 1.183c-.879 2.638-.317 5.423 1.514 7.297.977 1.035.757 1.183-.928.567-.586-.197-1.099-.345-1.148-.271-.171.173.415 2.416.879 3.303.635 1.233 1.929 2.441 3.345 3.155l1.196.567-1.416.025c-1.367 0-1.416.025-1.27.542.488 1.602 2.417 3.303 4.566 4.043l1.514.518-1.319.789A13.743 13.743 0 0 1 2 25.976c-1.099.025-2.002.123-2.002.197 0 .247 2.979 1.627 4.713 2.169 5.201 1.602 11.379.912 16.018-1.824 3.296-1.948 6.593-5.818 8.131-9.565.83-1.997 1.66-5.645 1.66-7.396 0-1.134.073-1.282 1.441-2.638.806-.789 1.563-1.652 1.709-1.898.244-.468.22-.468-1.026-.049-2.075.74-2.368.641-1.343-.468.757-.789 1.66-2.219 1.66-2.638 0-.074-.366.049-.781.271-.44.247-1.416.616-2.149.838l-1.319.419-1.196-.813c-.659-.444-1.587-.937-2.076-1.085-1.245-.345-3.15-.296-4.273.099-3.052 1.109-4.981 3.969-4.762 7.1z" />
        </symbol>
        <symbol id="video" viewBox="0 0 41 32">
            <path
                d="M34.911 3.229c1.602.44 2.864 1.735 3.292 3.38.778 2.982.778 9.203.778 9.203s0 6.221-.778 9.203c-.428 1.645-1.69 2.941-3.292 3.38-2.904.799-14.548.799-14.548.799s-11.644 0-14.548-.799c-1.602-.44-2.864-1.735-3.292-3.38-.778-2.982-.778-9.203-.778-9.203s0-6.221.778-9.203c.428-1.645 1.69-2.941 3.292-3.38 2.904-.799 14.548-.799 14.548-.799s11.644 0 14.548.799zm-18.038 7.347v11.636l9.309-5.818-9.309-5.818z" />
        </symbol>
        <symbol id="call" viewBox="0 0 32 32">
            <path
                d="M19.769.013a1.31 1.31 0 0 0-1.001.281c-.293.23-.476.563-.516.935a1.376 1.376 0 0 0 1.211 1.519c5.187.579 9.218 4.619 9.801 9.822a1.371 1.371 0 1 0 2.727-.307C31.264 5.771 26.24.733 19.769.012zm.1 5.571c-.762-.141-1.461.345-1.606 1.089s.343 1.469 1.084 1.615a5.54 5.54 0 0 1 4.39 4.4v.002a1.375 1.375 0 0 0 1.609 1.089 1.385 1.385 0 0 0 1.084-1.618 8.278 8.278 0 0 0-6.56-6.576zM22.4 20.945c.722-.416 1.538-.887 2.567-.668.932.197 4.109 2.776 4.98 3.67.57.585.888 1.189.937 1.794.086 2.371-3.136 5.078-3.722 5.416-.779.561-1.686.844-2.704.844-1.04 0-2.201-.296-3.466-.886C14.127 28.25 3.641 17.97.868 11.159-.282 8.623-.29 6.532.849 4.96c.454-.737 3.043-3.818 5.362-3.721.617.053 1.216.369 1.804.945.889.871 3.404 4.058 3.598 4.993.215 1.039-.257 1.866-.676 2.592-.089.156-.21.341-.342.544-.501.77-1.167 1.795-.931 2.449 1.691 4.151 5.596 7.772 9.749 9.473.642.233 1.666-.438 2.434-.941.2-.131.382-.251.536-.34l.017-.01z" />
        </symbol>
        <symbol id="location" viewBox="0 0 29 32">
            <path
                d="M.8 13.308C.8 5.948 6.95 0 14.39 0 21.85 0 28 5.949 28 13.308c0 3.709-1.349 7.152-3.569 10.07a35.29 35.29 0 0 1-8.866 8.225c-.778.509-1.479.547-2.333 0a34.616 34.616 0 0 1-8.864-8.225C2.146 20.46.799 17.017.799 13.308zm9.111.415c0 2.466 2.012 4.405 4.479 4.405 2.468 0 4.5-1.939 4.5-4.405 0-2.446-2.031-4.48-4.5-4.48-2.467 0-4.479 2.034-4.479 4.48z" />
        </symbol>
        <symbol id="message" viewBox="0 0 36 32">
            <path
                d="M26.559 0c2.384 0 4.677.942 6.364 2.633a8.955 8.955 0 0 1 2.633 6.345v14.044c0 4.96-4.036 8.978-8.997 8.978H8.996C4.034 32 0 27.982 0 23.022V8.978C0 4.018 4.016 0 8.996 0h17.563zm2.828 11.627.142-.142a1.375 1.375 0 0 0-.02-1.778 1.492 1.492 0 0 0-.94-.462 1.348 1.348 0 0 0-.997.356l-8.016 6.4a2.784 2.784 0 0 1-3.555 0l-8-6.4c-.553-.409-1.317-.356-1.778.124a1.358 1.358 0 0 0-.126 1.778l.233.231 8.089 6.311a5.591 5.591 0 0 0 3.467 1.209 5.64 5.64 0 0 0 3.483-1.209l8.02-6.418z" />
        </symbol>
        <symbol id="app-store-badge" viewBox="0 0 108 32">
            <path fill="#a6a6a6"
                d="M99.399 0H8.605c-.331 0-.658 0-.988.002-.276.002-.55.006-.829.01-.606.006-1.211.054-1.809.141a6.585 6.585 0 0 0-1.716.502 5.856 5.856 0 0 0-1.461.943c-.431.379-.79.817-1.063 1.297s-.465.993-.564 1.523A9.18 9.18 0 0 0 .013 6.02c-.008.245-.009.491-.014.737v18.491c.004.248.005.489.014.738a9.19 9.19 0 0 0 .162 1.602c.099.53.289 1.044.564 1.523.273.479.633.915 1.063 1.291.427.382.92.7 1.461.943s1.118.414 1.716.505c.598.087 1.203.134 1.809.141.279.005.553.009.829.009.33.002.657.002.988.002h90.794c.325 0 .654 0 .978-.002.275 0 .558-.003.832-.009a13.623 13.623 0 0 0 1.806-.141 6.712 6.712 0 0 0 1.722-.505 5.654 5.654 0 0 0 1.46-.943c.43-.378.79-.814 1.066-1.291a4.84 4.84 0 0 0 .558-1.523 9.59 9.59 0 0 0 .168-1.602c.003-.248.003-.489.003-.738.007-.291.007-.58.007-.875V7.63c0-.293 0-.584-.007-.873 0-.245 0-.491-.003-.737a9.601 9.601 0 0 0-.168-1.602 4.89 4.89 0 0 0-.558-1.523c-.557-.962-1.441-1.746-2.526-2.24a6.683 6.683 0 0 0-1.722-.502c-.597-.088-1.2-.135-1.806-.141-.274-.004-.557-.009-.832-.01C100.053 0 99.723 0 99.399 0z"
                style="fill:var(--color1, #a6a6a6)" />
            <path
                d="M7.544 31.302c-.275 0-.544-.003-.818-.009a13.075 13.075 0 0 1-1.69-.13 5.807 5.807 0 0 1-1.498-.438 4.897 4.897 0 0 1-1.263-.813 4.342 4.342 0 0 1-.923-1.117 4.218 4.218 0 0 1-.491-1.326 8.91 8.91 0 0 1-.151-1.5c-.006-.169-.013-.731-.013-.731V6.754s.008-.553.013-.716A8.774 8.774 0 0 1 .86 4.54a4.25 4.25 0 0 1 .491-1.33c.236-.414.546-.792.918-1.119a5.03 5.03 0 0 1 1.268-.818A5.742 5.742 0 0 1 5.032.838 12.807 12.807 0 0 1 6.728.707l.816-.01 93.737.01c.563.006 1.125.049 1.68.13a5.882 5.882 0 0 1 1.51.438c.938.428 1.702 1.105 2.184 1.936.235.416.398.861.483 1.319.094.499.146 1.004.158 1.51.002.227.002.47.002.712.007.3.007.586.007.874v16.746c0 .291 0 .574-.007.86 0 .26 0 .499-.003.744a9.02 9.02 0 0 1-.154 1.483c-.085.465-.25.916-.489 1.336a4.46 4.46 0 0 1-.918 1.109 4.93 4.93 0 0 1-1.266.818 5.782 5.782 0 0 1-1.508.44c-.558.081-1.124.124-1.69.13a43.47 43.47 0 0 1-.811.009l-.981.002-91.936-.002z"
                style="fill:var(--color2, #000)" />
            <path fill="#fff"
                d="M26.238 16.24a3.959 3.959 0 0 1 1.886-3.321 4.043 4.043 0 0 0-3.193-1.726c-1.343-.141-2.646.804-3.33.804-.698 0-1.752-.79-2.887-.767a4.25 4.25 0 0 0-3.579 2.183c-1.547 2.679-.393 6.616 1.089 8.781.742 1.06 1.608 2.245 2.742 2.203 1.11-.046 1.524-.708 2.864-.708 1.327 0 1.716.708 2.873.681 1.191-.019 1.941-1.065 2.656-2.135a8.766 8.766 0 0 0 1.215-2.474 3.823 3.823 0 0 1-2.335-3.519zM24.052 9.769a3.9 3.9 0 0 0 .892-2.792 3.963 3.963 0 0 0-2.566 1.328 3.7 3.7 0 0 0-.915 2.69 3.278 3.278 0 0 0 2.589-1.224zM40.265 21.712h-3.787l-.909 2.685h-1.604l3.587-9.934h1.666l3.587 9.934h-1.631l-.909-2.685zm-3.395-1.239h3.002l-1.48-4.358h-.041l-1.48 4.358zM50.55 20.776c0 2.251-1.205 3.697-3.023 3.697a2.462 2.462 0 0 1-2.279-1.267h-.034v3.588h-1.487v-9.639h1.439v1.205h.027a2.575 2.575 0 0 1 2.306-1.281c1.838 0 3.05 1.453 3.05 3.698zm-1.528 0c0-1.466-.758-2.43-1.914-2.43-1.136 0-1.9.984-1.9 2.43 0 1.459.764 2.437 1.9 2.437 1.156 0 1.914-.957 1.914-2.437zM58.522 20.776c0 2.251-1.205 3.697-3.023 3.697a2.458 2.458 0 0 1-2.279-1.267h-.034v3.588h-1.487v-9.639h1.439v1.205h.027a2.575 2.575 0 0 1 2.306-1.281c1.838 0 3.05 1.453 3.05 3.698zm-1.528 0c0-1.466-.758-2.43-1.914-2.43-1.136 0-1.9.984-1.9 2.43 0 1.459.764 2.437 1.9 2.437 1.156 0 1.914-.957 1.914-2.437zM63.791 21.629c.11.985 1.067 1.632 2.375 1.632 1.253 0 2.155-.647 2.155-1.535 0-.771-.544-1.233-1.831-1.549l-1.288-.31c-1.824-.441-2.671-1.294-2.671-2.678 0-1.714 1.494-2.891 3.615-2.891 2.099 0 3.538 1.177 3.587 2.891h-1.501c-.09-.991-.909-1.59-2.107-1.59s-2.017.605-2.017 1.487c0 .702.523 1.116 1.804 1.432l1.094.269c2.038.482 2.885 1.301 2.885 2.754 0 1.859-1.48 3.023-3.835 3.023-2.203 0-3.691-1.137-3.787-2.934h1.522zM73.1 15.44v1.714h1.377v1.177H73.1v3.993c0 .62.276.909.881.909.164-.003.327-.014.489-.034v1.17a4.084 4.084 0 0 1-.826.069c-1.466 0-2.038-.551-2.038-1.955v-4.152h-1.053v-1.177h1.053V15.44H73.1zM75.275 20.776c0-2.279 1.342-3.711 3.435-3.711 2.1 0 3.436 1.432 3.436 3.711 0 2.285-1.329 3.711-3.436 3.711s-3.435-1.426-3.435-3.711zm5.356 0c0-1.563-.717-2.486-1.921-2.486s-1.92.93-1.92 2.486c0 1.57.716 2.485 1.92 2.485s1.921-.916 1.921-2.485zM83.371 17.154h1.418v1.233h.034a1.723 1.723 0 0 1 1.742-1.309c.171-.001.342.018.509.056v1.391a2.097 2.097 0 0 0-.668-.09 1.505 1.505 0 0 0-1.483 1.029 1.5 1.5 0 0 0-.066.638v4.296H83.37v-7.243zM93.93 22.27c-.2 1.315-1.481 2.217-3.119 2.217-2.107 0-3.414-1.412-3.414-3.677 0-2.272 1.314-3.745 3.352-3.745 2.004 0 3.264 1.377 3.264 3.573v.509h-5.115v.09a1.883 1.883 0 0 0 1.167 1.914c.248.101.514.148.782.138a1.639 1.639 0 0 0 1.673-1.019h1.412zm-5.026-2.162h3.622a1.76 1.76 0 0 0-.486-1.308 1.734 1.734 0 0 0-1.291-.531 1.838 1.838 0 0 0-1.304.535c-.172.171-.308.374-.4.598s-.14.464-.14.706zM36.684 6.985a2.121 2.121 0 0 1 1.685.654 2.111 2.111 0 0 1 .562 1.718c0 1.525-.824 2.402-2.246 2.402h-1.724V6.985h1.724zm-.983 4.098h.9a1.496 1.496 0 0 0 1.195-.484 1.498 1.498 0 0 0 .379-1.233 1.512 1.512 0 0 0-.384-1.224 1.495 1.495 0 0 0-1.19-.482h-.9v3.424zM39.767 9.956a1.724 1.724 0 0 1 .436-1.31 1.708 1.708 0 0 1 1.952-.413 1.708 1.708 0 0 1 1.008 1.723 1.705 1.705 0 0 1-1.699 1.872 1.71 1.71 0 0 1-1.62-1.17 1.705 1.705 0 0 1-.079-.702zm2.667 0c0-.781-.351-1.238-.966-1.238-.618 0-.966.457-.966 1.238 0 .787.348 1.24.966 1.24.616 0 .966-.456.966-1.24zM47.681 11.758h-.738l-.745-2.653h-.056l-.741 2.653h-.73l-.993-3.602h.721l.645 2.749h.053l.741-2.749h.682l.741 2.749h.056l.642-2.749h.711l-.989 3.602zM49.506 8.156h.684v.572h.053a1.074 1.074 0 0 1 1.075-.642 1.177 1.177 0 0 1 .946.37 1.173 1.173 0 0 1 .301.969v2.332h-.711V9.604c0-.579-.252-.867-.777-.867a.827.827 0 0 0-.861.912v2.107h-.711V8.154zM53.698 6.75h.711v5.009h-.711V6.75zM55.397 9.956a1.724 1.724 0 0 1 .436-1.31 1.708 1.708 0 0 1 2.962 1.31 1.705 1.705 0 0 1-1.699 1.872 1.71 1.71 0 0 1-1.62-1.17 1.705 1.705 0 0 1-.079-.702zm2.666 0c0-.781-.351-1.238-.966-1.238-.618 0-.966.457-.966 1.238 0 .787.348 1.24.966 1.24.616 0 .966-.456.966-1.24zM59.543 10.739c0-.648.483-1.022 1.34-1.075l.976-.056v-.311c0-.38-.252-.595-.738-.595-.397 0-.672.146-.751.4h-.688c.073-.619.655-1.016 1.472-1.016.903 0 1.412.45 1.412 1.211v2.461h-.684v-.506h-.056c-.114.182-.274.33-.465.429s-.403.146-.617.137a1.085 1.085 0 0 1-1.201-1.077zm2.316-.307v-.301l-.88.056c-.496.033-.721.202-.721.52 0 .324.281.513.668.513a.855.855 0 0 0 .844-.461.845.845 0 0 0 .09-.326zM63.501 9.956c0-1.138.585-1.859 1.495-1.859a1.189 1.189 0 0 1 1.104.632h.053V6.751h.711v5.009h-.681v-.569h-.056a1.253 1.253 0 0 1-1.131.629c-.916 0-1.495-.721-1.495-1.862zm.735 0c0 .764.36 1.224.962 1.224.599 0 .97-.466.97-1.221 0-.751-.374-1.224-.97-1.224-.598 0-.962.463-.962 1.221zM69.807 9.956a1.699 1.699 0 0 1 .435-1.31 1.708 1.708 0 0 1 1.952-.413 1.698 1.698 0 0 1 .928 1.022c.075.226.102.464.08.701a1.705 1.705 0 0 1-1.699 1.872 1.71 1.71 0 0 1-1.62-1.17 1.688 1.688 0 0 1-.078-.702zm2.666 0c0-.781-.351-1.238-.966-1.238-.618 0-.966.457-.966 1.238 0 .787.348 1.24.966 1.24.616 0 .966-.456.966-1.24zM74.158 8.156h.684v.572h.053a1.074 1.074 0 0 1 1.075-.642 1.177 1.177 0 0 1 .946.37 1.173 1.173 0 0 1 .301.969v2.332h-.711V9.604c0-.579-.252-.867-.777-.867a.827.827 0 0 0-.861.912v2.107h-.711V8.154zM81.235 7.259v.913h.78v.599h-.78v1.852c0 .377.155.543.509.543.091 0 .182-.006.271-.016v.592a2.272 2.272 0 0 1-.386.036c-.791 0-1.106-.278-1.106-.973V8.771h-.572v-.599h.572v-.913h.712zM82.986 6.75h.705v1.985h.056a1.103 1.103 0 0 1 1.098-.645 1.2 1.2 0 0 1 .936.379 1.181 1.181 0 0 1 .305.964v2.326h-.712v-2.15c0-.575-.268-.867-.77-.867a.853.853 0 0 0-.667.245.819.819 0 0 0-.194.307.817.817 0 0 0-.046.36v2.104h-.711V6.749zM90.232 10.786a1.46 1.46 0 0 1-1.561 1.043 1.635 1.635 0 0 1-1.665-1.859 1.66 1.66 0 0 1 .971-1.738c.218-.097.453-.146.691-.144 1.002 0 1.606.685 1.606 1.816v.248h-2.543v.04a.963.963 0 0 0 .251.729.961.961 0 0 0 .708.304.866.866 0 0 0 .857-.437h.685zm-2.501-1.161h1.819a.861.861 0 0 0-.237-.662.867.867 0 0 0-.65-.27.917.917 0 0 0-.865.574.92.92 0 0 0-.067.359z"
                style="fill:var(--color3, #fff)" />
        </symbol>
        <symbol id="facebook" viewBox="0 0 16 32">
            <path
                d="M10.356 31.941v-14.57h4.704l.704-5.678h-5.408V8.068c0-1.644.439-2.764 2.707-2.764l2.892-.001V.224C15.455.155 13.738 0 11.741 0c-4.17 0-7.024 2.646-7.024 7.506v4.187H.001v5.678h4.716v14.57h5.64z" />
        </symbol>
        <symbol id="burger-menu" viewBox="0 0 48 32">
            <path
                d="M2.162 0h43.676a2.162 2.162 0 0 1 0 4.324H2.162a2.162 2.162 0 0 1 0-4.324zM2.162 13.839h43.676a2.162 2.162 0 0 1 0 4.324H2.162a2.162 2.162 0 0 1 0-4.324zM2.162 27.675h43.676a2.162 2.162 0 0 1 0 4.324H2.162a2.162 2.162 0 0 1 0-4.324z" />
        </symbol>
        <symbol id="youtube" viewBox="0 0 27 32">
            <path
                d="M21.536 12.153h-1.685v-.983c-.639.738-1.18 1.111-1.771 1.111-.518 0-.878-.246-1.058-.691-.109-.27-.187-.693-.187-1.313V3.128h1.685v7.328c.039.251.145.342.359.342.323 0 .614-.282.971-.789V3.128h1.685v9.026zM13.908 9.472c.089.894-.186 1.337-.71 1.337s-.798-.443-.709-1.337V5.897c-.089-.894.186-1.313.71-1.313s.799.419.71 1.313l-.001 3.575zm1.686-3.395c0-.965-.192-1.689-.532-2.145-.449-.617-1.153-.87-1.863-.87-.803 0-1.414.253-1.863.87-.345.456-.531 1.188-.531 2.153l-.002 3.209c0 .959.165 1.622.51 2.073.448.615 1.175.941 1.885.941s1.449-.326 1.898-.941c.34-.452.497-1.114.497-2.073V6.077zM8.941 7.238v4.915H7.167V7.238S5.329 1.212 4.95.089h1.863l1.245 4.707L9.297.089h1.863L8.943 7.238zM15.966 20.845c-.264 0-.567.141-.836.408l-.002 5.42c.268.27.573.408.838.408.463 0 .672-.342.672-1.236v-3.843c0-.894-.209-1.156-.672-1.156zM22.581 21.919c0-.826-.212-1.074-.744-1.074-.536 0-.764.228-.764 1.063v.988l1.508-.002v-.976z" />
            <path
                d="M21.852 27.08c.395 0 .626-.217.717-.649.015-.088.012-.474.012-1.123h1.685v.253c0 .521-.043.89-.057 1.052-.054.359-.18.683-.376.97-.444.648-1.103.968-1.942.968s-1.479-.305-1.944-.915c-.341-.447-.56-1.111-.56-2.06v-3.128c0-.954.199-1.692.54-2.144.464-.611 1.104-.934 1.924-.934.806 0 1.445.323 1.895.934.336.452.522 1.15.522 2.104v1.827h-3.196v1.605c-.006.825.227 1.24.779 1.24zm-3.528-1.326c0 .826-.07 1.409-.177 1.787-.214.664-.682 1.009-1.321 1.009-.571 0-1.156-.346-1.693-1.015l-.002.9h-1.597V16.46h1.597l-.002 3.904c.519-.643 1.106-1.009 1.697-1.009.639 0 1.069.372 1.284 1.041.107.359.215.938.215 1.783v3.575zm-6.12 2.681h-1.685v-.983c-.639.738-1.181 1.11-1.771 1.11-.518 0-.878-.246-1.058-.691-.109-.27-.187-.693-.187-1.313v-7.06h1.685v7.239c.039.251.145.342.359.342.322 0 .614-.282.971-.789v-6.792h1.685v8.936zm-6.387 0H4.043V18.158H2.18v-1.696l5.588-.002v1.698H5.817v10.277zm20.405-11.089s-.259-1.831-1.053-2.637c-1.007-1.058-2.136-1.063-2.654-1.125-3.706-.269-9.266-.269-9.266-.269h-.012s-5.56 0-9.266.269c-.518.062-1.646.067-2.654 1.125-.794.806-1.053 2.637-1.053 2.637s-.265 2.15-.265 4.299v2.015c0 2.15.265 4.299.265 4.299s.258 1.831 1.053 2.637c1.007 1.058 2.331 1.025 2.92 1.135 2.119.204 9.005.267 9.005.267s5.565-.008 9.272-.277c.518-.062 1.647-.067 2.654-1.125.794-.806 1.053-2.637 1.053-2.637s.265-2.15.265-4.299v-2.015c0-2.15-.265-4.299-.265-4.299z" />
        </symbol>
        <symbol id="instagram" viewBox="0 0 32 32">
            <path
                d="M29.139 15.998h-.049c0-1.333.026-2.666-.008-3.998-.032-1.256-.079-2.516-.206-3.765-.122-1.195-.543-2.296-1.35-3.225-1.129-1.3-2.618-1.847-4.268-1.948-1.877-.115-3.76-.143-5.642-.166a175.297 175.297 0 0 0-5.617.022 46.378 46.378 0 0 0-3.765.206c-1.195.122-2.296.543-3.225 1.35-1.3 1.129-1.847 2.618-1.948 4.268-.115 1.877-.143 3.76-.166 5.642-.023 1.872-.015 3.745.022 5.617.025 1.256.079 2.516.206 3.765.122 1.195.543 2.296 1.35 3.225 1.129 1.3 2.618 1.847 4.268 1.948 1.877.115 3.76.143 5.642.166 1.872.023 3.745.023 5.617-.025 1.382-.036 2.778-.062 4.138-.276 2.326-.365 3.899-1.714 4.525-4.022.203-.748.309-1.538.338-2.314.08-2.155.096-4.313.137-6.47zM0 21.27V10.73c.018-.1.048-.199.051-.3.037-1.237.092-2.471.396-3.679C1.131 4.026 2.711 2.044 5.31.92 6.719.311 8.216.134 9.734.072c.333-.014.665-.048.997-.072h10.54c.1.018.199.048.3.051 1.237.037 2.471.092 3.679.396 2.725.684 4.707 2.264 5.831 4.863.609 1.409.786 2.907.848 4.424.014.333.048.665.072.997v10.54c-.018.1-.048.199-.051.3-.037 1.237-.093 2.471-.396 3.679-.684 2.725-2.264 4.707-4.863 5.831-1.409.609-2.907.786-4.424.848-.333.014-.665.048-.997.072H10.73c-.1-.018-.199-.048-.3-.051-1.237-.037-2.471-.093-3.679-.396C4.026 30.87 2.044 29.29.92 26.691c-.609-1.409-.786-2.906-.848-4.424-.014-.333-.048-.665-.072-.997z" />
            <path
                d="M15.996 21.323c2.912 0 5.324-2.383 5.327-5.263.003-2.967-2.361-5.38-5.271-5.383-2.977-.002-5.374 2.366-5.375 5.31s2.383 5.335 5.318 5.335zm8.227-5.316c-.002 4.55-3.688 8.222-8.245 8.216-4.532-.007-8.203-3.69-8.2-8.23a8.217 8.217 0 0 1 8.245-8.216c4.534.008 8.201 3.689 8.2 8.23zM24.523 5.534c1.075-.005 1.94.851 1.942 1.921s-.86 1.937-1.929 1.939a1.943 1.943 0 0 1-1.931-1.941 1.935 1.935 0 0 1 1.918-1.919z" />
        </symbol>
        <symbol id="quotes" viewBox="0 0 41 32">
            <path
                d="M39.199.148v2.323c-3.287 1.201-5.862 3.097-7.727 5.689-1.865 2.56-2.797 5.23-2.797 8.011 0 .6.095 1.043.284 1.327.126.19.269.284.427.284s.395-.111.711-.332c1.012-.727 2.291-1.09 3.84-1.09 1.801 0 3.397.743 4.788 2.228 1.39 1.454 2.086 3.192 2.086 5.215 0 2.117-.806 3.982-2.418 5.594-1.58 1.612-3.508 2.418-5.783 2.418-2.655 0-4.946-1.09-6.874-3.271s-2.892-5.104-2.892-8.77c0-4.266 1.312-8.09 3.935-11.472s6.763-6.099 12.42-8.154zm-22.801 0v2.323c-3.287 1.201-5.862 3.097-7.727 5.689-1.865 2.56-2.797 5.23-2.797 8.011 0 .6.095 1.043.284 1.327.126.19.269.284.427.284s.395-.111.711-.332c1.011-.727 2.291-1.09 3.84-1.09 1.801 0 3.397.743 4.788 2.228 1.391 1.454 2.086 3.192 2.086 5.215 0 2.117-.806 3.982-2.418 5.594-1.58 1.612-3.508 2.418-5.783 2.418-2.655 0-4.946-1.09-6.874-3.271S.043 23.44.043 19.774c0-4.266 1.312-8.09 3.935-11.472s6.763-6.099 12.42-8.154z" />
        </symbol>
        <symbol id="search" viewBox="0 0 34 32">
            <path
                d="m1.822 26.691 7.077-6.711a2.567 2.567 0 0 1 3.583.063 2.457 2.457 0 0 1-.061 3.518l-7.077 6.711a2.567 2.567 0 0 1-3.583-.063 2.457 2.457 0 0 1 .061-3.518z" />
            <path stroke-width="6"
                d="M31 13.045c0 5.497-4.553 10.045-10.284 10.045s-10.285-4.549-10.285-10.045S14.984 3 20.716 3 31 7.549 31 13.045z" />
        </symbol>
        <symbol id="google-play-badge" viewBox="0 0 108 32">
            <path d="M104 0H4a4 4 0 0 0-4 4v24a4 4 0 0 0 4 4h100a4 4 0 0 0 4-4V4a4 4 0 0 0-4-4z"
                style="fill:var(--color1, #000)" />
            <path fill="#a6a6a6"
                d="M104 .64A3.369 3.369 0 0 1 107.36 4v24a3.363 3.363 0 0 1-3.36 3.36H4A3.364 3.364 0 0 1 .64 28V4A3.364 3.364 0 0 1 4 .64h100zm0-.64H4a4.012 4.012 0 0 0-4 4v24a4.012 4.012 0 0 0 4 4h100a4.014 4.014 0 0 0 4-4V4a4.012 4.012 0 0 0-4-4z"
                style="fill:var(--color2, #a6a6a6)" />
            <path fill="#fff"
                d="M37.935 8.195a2.162 2.162 0 0 1-.596 1.602 2.34 2.34 0 0 1-1.763.71 2.476 2.476 0 0 1-2.314-1.545 2.476 2.476 0 0 1-.18-.962 2.48 2.48 0 0 1 .719-1.779 2.476 2.476 0 0 1 1.775-.729 2.47 2.47 0 0 1 .985.201c.289.117.546.301.751.536l-.422.422a1.629 1.629 0 0 0-1.314-.57 1.867 1.867 0 0 0-1.34.562 1.853 1.853 0 0 0-.524 1.355 1.887 1.887 0 0 0 3.204 1.381c.246-.265.389-.61.402-.972h-1.743V7.83h2.326c.022.119.033.241.034.362zM41.622 6.19h-2.186v1.522h1.971v.577h-1.971v1.522h2.186v.59H38.82v-4.8h2.802v.59zM44.223 10.4h-.617V6.19h-1.341V5.6h3.298v.59h-1.341v4.21zM47.95 10.4V5.6h.616v4.8h-.616zM51.303 10.4h-.617V6.19h-1.341V5.6h3.298v.59h-1.341v4.21zM58.887 9.78a2.491 2.491 0 0 1-3.52 0A2.444 2.444 0 0 1 54.66 8a2.455 2.455 0 0 1 .707-1.78 2.484 2.484 0 0 1 3.517.002 2.464 2.464 0 0 1 .71 1.776 2.444 2.444 0 0 1-.707 1.78zm-3.064-.402a1.848 1.848 0 0 0 2.608 0A1.89 1.89 0 0 0 58.965 8a1.872 1.872 0 0 0-.534-1.378 1.847 1.847 0 0 0-2.608 0 1.882 1.882 0 0 0-.533 1.377 1.888 1.888 0 0 0 .533 1.377zM60.46 10.4V5.6h.751l2.333 3.734h.027l-.027-.925V5.6h.617v4.8h-.644l-2.441-3.915h-.027l.027.925v2.99h-.616zM54.509 17.401a3.404 3.404 0 1 0 2.842 5.293 3.397 3.397 0 0 0 .572-1.889 3.338 3.338 0 0 0-.987-2.425 3.351 3.351 0 0 0-2.429-.977zm0 5.465a2.07 2.07 0 0 1-2.191-2.375 2.068 2.068 0 0 1 4.112.313 1.975 1.975 0 0 1-1.16 1.89c-.24.107-.498.166-.761.172zm-7.451-5.465a3.404 3.404 0 1 0 2.842 5.293 3.397 3.397 0 0 0 .572-1.889 3.338 3.338 0 0 0-.987-2.425 3.351 3.351 0 0 0-2.429-.977zm0 5.465a2.07 2.07 0 0 1-2.191-2.375 2.068 2.068 0 0 1 4.112.313 1.975 1.975 0 0 1-1.16 1.89c-.24.107-.498.166-.761.172zm-8.863-4.421v1.443h3.454a3.015 3.015 0 0 1-.786 1.817 3.527 3.527 0 0 1-2.668 1.057 3.84 3.84 0 0 1-2.682-6.539 3.841 3.841 0 0 1 2.682-1.143 3.683 3.683 0 0 1 2.604 1.031l1.018-1.018a5.022 5.022 0 0 0-3.622-1.456 5.29 5.29 0 0 0-4.953 3.244 5.275 5.275 0 0 0 0 4.08 5.3 5.3 0 0 0 2.907 2.864c.65.261 1.345.39 2.046.38a4.827 4.827 0 0 0 3.686-1.483 4.767 4.767 0 0 0 1.25-3.377 4.785 4.785 0 0 0-.077-.902h-4.859zm36.246 1.122a3.16 3.16 0 0 0-2.913-2.165 3.246 3.246 0 0 0-2.332 1.014 3.24 3.24 0 0 0-.877 2.388 3.319 3.319 0 0 0 2.07 3.156c.414.169.858.253 1.306.246a3.387 3.387 0 0 0 2.835-1.508l-1.16-.773a1.947 1.947 0 0 1-1.675.941 1.73 1.73 0 0 1-1.649-1.031l4.55-1.882-.155-.387zm-4.639 1.134a1.872 1.872 0 0 1 1.064-1.807c.225-.106.468-.167.715-.178.258-.017.516.042.74.171s.406.32.523.551l-3.042 1.263zM66.103 24h1.495V13.999h-1.495V24zm-2.449-5.838h-.052a2.355 2.355 0 0 0-1.792-.761 3.406 3.406 0 0 0 0 6.804 2.326 2.326 0 0 0 1.791-.773h.052v.49c0 1.302-.696 1.998-1.817 1.998a1.884 1.884 0 0 1-1.715-1.212l-1.302.541a3.243 3.243 0 0 0 3.016 2.011c1.753 0 3.235-1.031 3.235-3.544v-6.109h-1.418v.554zm-1.714 4.704a2.07 2.07 0 0 1 0-4.124 1.928 1.928 0 0 1 1.349.652 1.919 1.919 0 0 1 .468 1.423 1.893 1.893 0 0 1-.473 1.411 1.914 1.914 0 0 1-1.344.638zm19.505-8.867h-3.577V24h1.493v-3.789h2.085a3.11 3.11 0 0 0 3.027-4.336 3.107 3.107 0 0 0-3.027-1.876zm.038 4.82H79.36v-3.428h2.123a1.713 1.713 0 1 1 0 3.428zm9.226-1.436a2.805 2.805 0 0 0-2.664 1.531l1.326.553a1.423 1.423 0 0 1 1.364-.734 1.437 1.437 0 0 1 1.569 1.287v.103a3.3 3.3 0 0 0-1.557-.386c-1.428 0-2.882.785-2.882 2.252a2.324 2.324 0 0 0 .776 1.626 2.306 2.306 0 0 0 1.707.574 2.108 2.108 0 0 0 1.905-.978h.051v.772h1.441v-3.834c0-1.776-1.325-2.766-3.036-2.766zm-.181 5.481c-.489 0-1.17-.244-1.17-.849 0-.772.849-1.068 1.582-1.068.477-.013.947.103 1.364.335a1.812 1.812 0 0 1-1.776 1.583zm8.466-5.262-1.711 4.336h-.051l-1.776-4.336h-1.608l2.663 6.06-1.518 3.371h1.557l4.105-9.431h-1.66zM85.549 24h1.493V13.999h-1.493V24z"
                style="fill:var(--color3, #fff)" />
            <path fill="#00beff"
                d="M8.348 6.03a1.602 1.602 0 0 0-.37 1.124v17.693c-.025.408.108.81.37 1.124l.059.058 9.911-9.911v-.234L8.407 5.972l-.059.058z"
                style="fill:var(--color4, #00beff)" />
            <path fill="#ffe000"
                d="m21.622 19.423-3.304-3.305v-.234l3.304-3.304.074.042 3.914 2.224c1.118.635 1.118 1.675 0 2.31l-3.99 2.267z"
                style="fill:var(--color5, #ffe000)" />
            <path fill="#ff3a44" d="m21.697 19.38-3.379-3.379-9.97 9.97a1.302 1.302 0 0 0 1.662.049l11.687-6.64z"
                style="fill:var(--color6, #ff3a44)" />
            <path fill="#06e775" d="M21.697 12.622 10.01 5.982a1.3 1.3 0 0 0-1.662.049l9.97 9.97 3.379-3.379z"
                style="fill:var(--color7, #06e775)" />
            <path
                d="m21.623 19.306-11.612 6.598a1.33 1.33 0 0 1-1.603.008l-.06.06.059.058a1.335 1.335 0 0 0 1.603-.008l11.687-6.64-.074-.074z"
                opacity=".2" style="fill:var(--color1, #000)" />
            <path
                d="M8.348 25.855a1.602 1.602 0 0 1-.37-1.124v.117c-.025.408.108.81.37 1.124l.06-.06-.06-.057zM25.612 17.039l-3.989 2.267.074.074 3.914-2.224a1.404 1.404 0 0 0 .839-1.155 1.492 1.492 0 0 1-.839 1.038z"
                opacity=".12" style="fill:var(--color1, #000)" />
            <path fill="#fff"
                d="m10.011 6.099 15.601 8.864a1.487 1.487 0 0 1 .838 1.038 1.41 1.41 0 0 0-.838-1.155L10.011 5.982c-1.118-.635-2.033-.108-2.033 1.173v.117c0-1.281.915-1.808 2.033-1.173z"
                opacity=".25" style="fill:var(--color3, #fff)" />
        </symbol>
    </defs>
</svg>