<svg width="60" height="60" viewBox="0 0 60 60" fill="none" xmlns="http://www.w3.org/2000/svg">
<rect width="60" height="60" rx="30" fill="#E43071"/>
<path d="M29.4509 25.08C28.9976 24.3333 28.3709 23.76 27.5709 23.36C26.7976 22.96 25.8776 22.76 24.8109 22.76C22.8376 22.76 21.2776 23.4 20.1309 24.68C19.0109 25.96 18.4509 27.68 18.4509 29.84C18.4509 32.2667 19.0509 34.12 20.2509 35.4C21.4776 36.6533 23.2509 37.28 25.5709 37.28C28.3176 37.28 30.2776 36.04 31.4509 33.56H23.5709V27.92H38.2109V35.52C37.5976 37.0133 36.6909 38.4133 35.4909 39.72C34.3176 41.0267 32.8243 42.1067 31.0109 42.96C29.1976 43.7867 27.1309 44.2 24.8109 44.2C21.9843 44.2 19.4776 43.6 17.2909 42.4C15.1309 41.1733 13.4509 39.48 12.2509 37.32C11.0776 35.1333 10.4909 32.64 10.4909 29.84C10.4909 27.0667 11.0776 24.6 12.2509 22.44C13.4509 20.2533 15.1309 18.56 17.2909 17.36C19.4509 16.1333 21.9443 15.52 24.7709 15.52C28.3176 15.52 31.2509 16.3733 33.5709 18.08C35.8909 19.7867 37.3309 22.12 37.8909 25.08H29.4509Z" fill="white"/>
<path d="M49.5644 14.4V44H41.7244V14.4H49.5644Z" fill="#FFC1D8"/>
</svg>
